<svg preserveAspectRatio="none" width="98" height="98" viewBox="0 0 98 98" fill="none" xmlns="http://www.w3.org/2000/svg">
<g filter="url(#filter0_d_90_158)">
<circle cx="49" cy="49" r="49" fill="white"/>
<circle cx="49" cy="49" r="49" stroke="#E0DDDD" stroke-width="4"/>
</g>
<path d="M45.8583 61.8084L56.9749 50.6917C57.2166 50.4501 57.3874 50.1883 57.4873 49.9063C57.5888 49.6244 57.6395 49.3223 57.6395 49.0001C57.6395 48.6779 57.5888 48.3758 57.4873 48.0938C57.3874 47.8119 57.2166 47.5501 56.9749 47.3084L45.8583 36.1917C45.4152 35.7487 44.8513 35.5272 44.1666 35.5272C43.4819 35.5272 42.918 35.7487 42.4749 36.1917C42.0319 36.6348 41.8104 37.1987 41.8104 37.8834C41.8104 38.5681 42.0319 39.132 42.4749 39.5751L51.8999 49.0001L42.4749 58.4251C42.0319 58.8681 41.8104 59.432 41.8104 60.1167C41.8104 60.8015 42.0319 61.3654 42.4749 61.8084C42.918 62.2515 43.4819 62.473 44.1666 62.473C44.8513 62.473 45.4152 62.2515 45.8583 61.8084V61.8084Z" fill="#171717"/>
<defs>
<filter id="filter0_d_90_158" x="-46" y="-45" width="190" height="190" filterUnits="userSpaceOnUse" color-interpolation-filters="sRGB">
<feFlood flood-opacity="0" result="BackgroundImageFix"/>
<feColorMatrix in="SourceAlpha" type="matrix" values="0 0 0 0 0 0 0 0 0 0 0 0 0 0 0 0 0 0 127 0" result="hardAlpha"/>
<feMorphology radius="14" operator="dilate" in="SourceAlpha" result="effect1_dropShadow_90_158"/>
<feOffset dy="1"/>
<feGaussianBlur stdDeviation="15"/>
<feComposite in2="hardAlpha" operator="out"/>
<feColorMatrix type="matrix" values="0 0 0 0 0 0 0 0 0 0 0 0 0 0 0 0 0 0 0.57 0"/>
<feBlend mode="normal" in2="BackgroundImageFix" result="effect1_dropShadow_90_158"/>
<feBlend mode="normal" in="SourceGraphic" in2="effect1_dropShadow_90_158" result="shape"/>
</filter>
</defs>
</svg>
