<svg preserveAspectRatio="none" width="50" height="50" viewBox="0 0 50 50" fill="none" xmlns="http://www.w3.org/2000/svg">
<g clip-path="url(#clip0_90_170)">
<path d="M28.9167 21.2639L14.5278 12.5C13.8889 12.1389 12.9861 13.0139 13.3333 13.6667L21.875 28.3333L36.5417 36.875C36.7073 36.935 36.8866 36.9461 37.0584 36.9069C37.2301 36.8676 37.3869 36.7798 37.5099 36.6538C37.633 36.5277 37.7172 36.3689 37.7524 36.1964C37.7875 36.0238 37.7723 35.8447 37.7083 35.6806L28.9167 21.2639ZM23.3611 26.8194L27.5278 22.6528L33.8472 32.9861L23.3611 26.8194Z" fill="white"/>
<path d="M25 2.77778C20.6049 2.77778 16.3084 4.08109 12.654 6.5229C8.99957 8.96471 6.15129 12.4353 4.46935 16.4959C2.7874 20.5565 2.34733 25.0246 3.20477 29.3353C4.06222 33.646 6.17869 37.6057 9.28652 40.7135C12.3944 43.8213 16.354 45.9378 20.6647 46.7952C24.9754 47.6527 29.4435 47.2126 33.5041 45.5307C37.5647 43.8487 41.0353 41.0004 43.4771 37.346C45.9189 33.6916 47.2222 29.3951 47.2222 25C47.2222 19.1063 44.881 13.454 40.7135 9.28652C36.546 5.11904 30.8937 2.77778 25 2.77778ZM26.3889 44.375V41.0139H23.6111V44.375C18.9528 44.037 14.5718 42.0335 11.2692 38.7309C7.96655 35.4282 5.96305 31.0472 5.625 26.3889H8.98611V23.6111H5.625C5.96305 18.9528 7.96655 14.5718 11.2692 11.2691C14.5718 7.96655 18.9528 5.96304 23.6111 5.625V8.98611H26.3889V5.625C31.0472 5.96304 35.4283 7.96655 38.7309 11.2691C42.0335 14.5718 44.037 18.9528 44.375 23.6111H41.0139V26.3889H44.375C44.037 31.0472 42.0335 35.4282 38.7309 38.7309C35.4283 42.0335 31.0472 44.037 26.3889 44.375Z" fill="white"/>
</g>
<defs>
<clipPath id="clip0_90_170">
<rect width="50" height="50" fill="white"/>
</clipPath>
</defs>
</svg>
